<?xml version="1.0" encoding="utf-8"?>
<!-- Generator: Adobe Illustrator 28.1.0, SVG Export Plug-In . SVG Version: 6.00 Build 0)  -->
<svg version="1.1" id="Layer_1" xmlns="http://www.w3.org/2000/svg" xmlns:xlink="http://www.w3.org/1999/xlink" x="0px" y="0px"
	 viewBox="0 0 512 512" style="enable-background:new 0 0 512 512;" xml:space="preserve">
<style type="text/css">
	.st0{fill:#E8A200;}
	.st1{fill:#FFFFFF;}
	.st2{fill:none;stroke:#0C0000;stroke-miterlimit:10;}
</style>
<g>
	<g>
		<circle class="st0" cx="260.4" cy="256" r="215.6"/>
		<path class="st1" d="M136.1,181c0,0,26.2-24.4,50.2-29.3c0,0,15.1-4.9,40.9-2.4c0,0,16.4,1.1,31.3,9.1c0,0-15.3-16.9-33.6-22.4
			c0,0-25.6-6.9-35.6-6.9c0,0,28.4-6.4,46.7-2.9c0,0,23.1,1.8,43.1,16c0,0,12.7,6.7,28.2,26.9c0,0-2.7-30-44.2-58.9
			c0,0,76.4,18.4,81.1,94.4c0,0,13.8-23.3-7.8-74.2c0,0,54.7,46.4,23.3,122.2c0,0,23.8-15.1,29.1-67.1c0,0,23.1,74-42.9,117.3
			c0,0,29.8-0.4,61.3-44.4c0,0-15.1,73.6-94.7,81.8c0,0,36.7,11.1,73.8-9.6c0,0-50.2,57.1-122.9,22.9c0,0,18.4,26.4,69.6,30.2
			c0,0-68.7,24.7-117.6-40.9c0,0,4,32,43.6,58.9c0,0-70.2-12-81.3-93.6c0,0-11.3,32.2,8.2,72.9c0,0-53.8-43.8-22.4-122
			c0,0-26.2,21.3-29.8,66.7c0,0-22-68.4,40.9-115.3c0,0-36.4,8.2-58.7,44c0,0,17.1-74.7,94.2-81.3C210.3,173,177.9,161.9,136.1,181z
			"/>
		<path class="st1" d="M86.5,248.3c0,0,33.5,18.7,3.8,45c0,0-12.2,30.8,10.7,50.7c0,0,23.7,12.1,16.9,22.2c0,0,3,6.5,6.2,6.5
			c0,0,7.4,4.3,4.3,4.3c0,0-7.3,1-15.6-7.3c0,0-5.3,6.8-20.7-17.2c0,0-16.3-14.5-11.6-64.6c0,0-12.2,1.8-12.2-4.4v-12.1
			c0,0-2.5-2.5-5,0v5.6c0,0-5.3,3-7-7c0,0,5.5-12.3,18.8-3.4c0,0,5,2.7,3,9.8c0,0-6.5-2.1-6.5,1.5c0,0,2.1,7.1,9.2,3.6
			c0,0,5.6-7.7,0-17.5c0,0-24-11-22.5-18.1c0,0,0.9-14.5,4.2-14.5c0,0-0.3,11.3,6.8,13.9c0,0,6.5,3.9,3.3-13.9c0,0,0.3-16,4.2-19.9
			c0,0,2.7-3-3.8-9.5c0,0-2.7-9.2,7.3-7.3l23.6-39c0,0-10.7-2.7-7.4-13.9c0,0,3.6-7.1,9.5-4.1c0,0,5.9,4.7,3,7.7c0,0-4.4-8.7-8-1.5
			c0,0-1.8,7.3,7.3,7.3c0,0,9-0.7,7-9.6c0,0,1.4-0.8-2.4-4.6c0,0-0.9-2.8,5,0c0,0,6.5,8.1-1.5,16.1c0,0,5.3,4.7,10.4-5.3v-5.6
			c0,0,4.2,0.9,2.7,8.6c0,0,1.8,9.2-14.8,9.2l-4.4-1.2l-26.1,40.9c0,0-1.5,9.8,0,14.2C83.8,213.9,92.1,232.6,86.5,248.3z"/>
		<path class="st1" d="M253.6,431.2c0,0,18.7-33.5,45-3.9c0,0,30.8,12.1,50.7-10.7c0,0,12.1-23.7,22.2-16.9c0,0,6.5-3,6.5-6.2
			c0,0,4.3-7.4,4.3-4.3c0,0,1,7.3-7.3,15.6c0,0,6.8,5.3-17.2,20.7c0,0-14.5,16.3-64.6,11.6c0,0,1.8,12.1-4.4,12.1h-12.1
			c0,0-2.5,2.5,0,5h5.6c0,0,3,5.3-7,7c0,0-12.3-5.5-3.4-18.8c0,0,2.7-5,9.8-3c0,0-2.1,6.5,1.5,6.5c0,0,7.1-2.1,3.6-9.2
			c0,0-7.7-5.6-17.5,0c0,0-11,24-18.1,22.5c0,0-14.5-0.9-14.5-4.1c0,0,11.3,0.3,13.9-6.8c0,0,3.9-6.5-13.9-3.3c0,0-16-0.3-19.9-4.1
			c0,0-3-2.7-9.5,3.9c0,0-9.2,2.7-7.3-7.3l-39-23.6c0,0-2.7,10.7-13.9,7.4c0,0-7.1-3.6-4.1-9.5c0,0,4.7-5.9,7.7-3c0,0-8.7,4.4-1.5,8
			c0,0,7.3,1.8,7.3-7.3c0,0-0.7-9-9.6-7c0,0-0.8-1.4-4.6,2.4c0,0-2.8,0.9,0-5c0,0,8.1-6.5,16.1,1.5c0,0,4.7-5.3-5.3-10.4h-5.6
			c0,0,0.9-4.2,8.6-2.7c0,0,9.2-1.8,9.2,14.8l-1.2,4.4l40.9,26.1c0,0,9.8,1.5,14.2,0C219.3,433.9,237.9,425.6,253.6,431.2z"/>
		<path class="st1" d="M437,265.5c0,0-33.5-18.7-3.9-45c0,0,12.1-30.8-10.7-50.7c0,0-23.7-12.1-16.9-22.2c0,0-3-6.5-6.2-6.5
			c0,0-7.4-4.3-4.3-4.3c0,0,7.3-1,15.6,7.3c0,0,5.3-6.8,20.7,17.2c0,0,16.3,14.5,11.6,64.6c0,0,12.1-1.8,12.1,4.4v12.1
			c0,0,2.5,2.5,5,0v-5.6c0,0,5.3-3,7,7c0,0-5.5,12.3-18.8,3.4c0,0-5-2.7-3-9.8c0,0,6.5,2.1,6.5-1.5c0,0-2.1-7.1-9.2-3.6
			c0,0-5.6,7.7,0,17.5c0,0,24,11,22.5,18.1c0,0-0.9,14.5-4.1,14.5c0,0,0.3-11.3-6.8-13.9c0,0-6.5-3.9-3.3,13.9c0,0-0.3,16-4.1,19.9
			c0,0-2.7,3,3.9,9.5c0,0,2.7,9.2-7.3,7.3l-23.6,39c0,0,10.7,2.7,7.4,13.9c0,0-3.6,7.1-9.5,4.1c0,0-5.9-4.7-3-7.7c0,0,4.4,8.7,8,1.5
			c0,0,1.8-7.3-7.3-7.3c0,0-9,0.7-7,9.6c0,0-1.4,0.8,2.4,4.6c0,0,0.9,2.8-5,0c0,0-6.5-8.1,1.5-16.1c0,0-5.3-4.7-10.4,5.3v5.6
			c0,0-4.2-0.9-2.7-8.6c0,0-1.8-9.2,14.8-9.2l4.4,1.2l26.1-40.9c0,0,1.5-9.8,0-14.2C439.7,299.9,431.4,281.2,437,265.5z"/>
		<path class="st1" d="M269.9,82.1c0,0-18.7,33.5-45,3.8c0,0-30.8-12.2-50.7,10.7c0,0-12.1,23.7-22.2,16.9c0,0-6.5,3-6.5,6.2
			c0,0-4.3,7.4-4.3,4.3c0,0-1-7.3,7.3-15.6c0,0-6.8-5.3,17.2-20.7c0,0,14.5-16.3,64.6-11.6c0,0-1.8-12.2,4.4-12.2h12.1
			c0,0,2.5-2.5,0-5h-5.6c0,0-3-5.3,7-7c0,0,12.3,5.5,3.4,18.8c0,0-2.7,5-9.8,3c0,0,2.1-6.5-1.5-6.5c0,0-7.1,2.1-3.6,9.2
			c0,0,7.7,5.6,17.5,0c0,0,11-24,18.1-22.5c0,0,14.5,0.9,14.5,4.2c0,0-11.3-0.3-13.9,6.8c0,0-3.9,6.5,13.9,3.3c0,0,16,0.3,19.9,4.2
			c0,0,3,2.7,9.5-3.8c0,0,9.2-2.7,7.3,7.3l39,23.6c0,0,2.7-10.7,13.9-7.4c0,0,7.1,3.6,4.1,9.5c0,0-4.7,5.9-7.7,3c0,0,8.7-4.4,1.5-8
			c0,0-7.3-1.8-7.3,7.3c0,0,0.7,9,9.6,7c0,0,0.8,1.4,4.6-2.4c0,0,2.8-0.9,0,5c0,0-8.1,6.5-16.1-1.5c0,0-4.7,5.3,5.3,10.4h5.6
			c0,0-0.9,4.2-8.6,2.7c0,0-9.2,1.8-9.2-14.8l1.2-4.4l-40.9-26.1c0,0-9.8-1.5-14.2,0C304.3,79.4,285.6,87.7,269.9,82.1z"/>
	</g>
	<g>
		<path d="M220.7,256.6c0,0-12.9,12-6.4,29.6c0,0,4.9,16,19.6,14.9c0,0,14.2,0.7,7.8-13.6c0,0-9.8-13.6,1.7-13.6h29.4
			c0,0,17.2,3.2,6.7,13.8c0,0-7.3,9.2,0.7,13.4c0,0,12.7,9.2,21.7-10.7c0,0,11.4-18.2-7.9-34.4C293.8,256,262,280.6,220.7,256.6z"/>
		<ellipse class="st1" cx="260.8" cy="228.9" rx="52.6" ry="39.4"/>
		<path d="M209.3,216.8c0,0-22-10-4.9-29c0,0,19.8-11.6,28,5.6L209.3,216.8z"/>
		<path d="M286.9,193.4c0,0,11.1-18.6,30-3.9c0,0,15.1,13.7-5.3,27.3L286.9,193.4z"/>
		<ellipse cx="260.8" cy="236.6" rx="5.3" ry="2.9"/>
		<g>
			<path class="st2" d="M250.4,243.2c0,4.1,4.6,7.4,10.4,7.4"/>
			<path class="st2" d="M270.1,243.1c0.1,4.1-4.2,7.6-9.7,7.7"/>
		</g>
		<path d="M215.3,295.4c0,0,8,17.3,25.6,28.7c0,0-25.3,3.8-34.4,0c0,0-10.4-12.9-8.5-20C197.9,304.1,215.3,301.4,215.3,295.4z"/>
		<path d="M307.9,298.1c0,0-7.9,18.9-23.9,26.7c0,0,18.7,5.8,29.3,2c0,0,14.7-5.1,12.2-20.2C325.5,306.5,313,305.6,307.9,298.1z"/>
		<g>
			<path d="M231.4,239.6c12.7,1,12.7-13.1,12.7-13.1s1.8-16.4-16-5.3C228.1,221.1,217,238.5,231.4,239.6z"/>
			<circle class="st1" cx="237.4" cy="228.5" r="3.3"/>
		</g>
		<g>
			<path d="M274.7,227c0,0,1.3-18,16.4-5.8c0,0,10.2,10.7,0,18.2C291.1,239.4,277.1,243.9,274.7,227z"/>
			<circle class="st1" cx="283.1" cy="229.5" r="3.3"/>
		</g>
	</g>
</g>
</svg>
