<?xml version="1.0" standalone="no"?>
<!DOCTYPE svg PUBLIC "-//W3C//DTD SVG 20010904//EN"
 "http://www.w3.org/TR/2001/REC-SVG-20010904/DTD/svg10.dtd">
<svg version="1.0" xmlns="http://www.w3.org/2000/svg"
 width="700.000000pt" height="700.000000pt" viewBox="0 0 700.000000 700.000000"
 preserveAspectRatio="xMidYMid meet">
<metadata>
Created by potrace 1.14, written by Peter Selinger 2001-2017
</metadata>
<g transform="translate(0.000000,700.000000) scale(0.100000,-0.100000)"
fill="#000000" stroke="none">
<path d="M3368 6465 c-2 -1 -53 -5 -115 -9 -61 -4 -120 -9 -131 -11 -11 -2
-42 -7 -69 -11 -26 -3 -57 -8 -68 -10 -11 -2 -36 -7 -55 -10 -304 -52 -726
-214 -967 -370 -28 -19 -54 -34 -57 -34 -11 0 -222 -154 -306 -223 -96 -79
-315 -296 -375 -372 -22 -27 -45 -55 -51 -62 -26 -28 -135 -183 -197 -281
-161 -254 -318 -637 -372 -907 -54 -270 -68 -405 -69 -645 0 -142 9 -306 19
-355 2 -11 6 -40 9 -65 21 -192 109 -510 204 -735 37 -89 161 -325 212 -405
53 -83 196 -280 239 -330 307 -353 610 -587 994 -770 292 -139 520 -207 887
-264 174 -26 614 -27 751 -1 12 2 40 7 63 9 22 3 66 10 96 16 30 6 70 13 89
16 61 10 310 83 408 120 148 55 408 179 444 210 8 8 19 14 24 14 8 0 219 137
251 163 10 9 48 39 84 67 151 119 341 304 435 424 17 21 38 48 49 60 10 11 39
50 64 86 26 36 51 70 57 76 5 6 19 27 30 47 11 20 23 37 27 37 5 0 8 4 8 10 0
5 18 40 41 76 41 68 119 219 160 309 54 121 138 371 164 485 3 15 33 160 40
194 3 10 7 44 11 75 3 31 8 58 9 61 2 3 7 52 11 110 14 183 8 530 -11 630 -2
12 -7 41 -9 64 -3 22 -8 52 -11 66 -3 14 -8 41 -11 60 -3 19 -14 71 -25 115
-11 44 -22 90 -24 103 -14 59 -84 259 -133 377 -33 78 -152 311 -187 363 -19
30 -35 56 -35 58 0 5 -74 117 -92 139 -4 6 -45 57 -90 115 -353 449 -838 788
-1388 970 -80 26 -251 72 -322 85 -11 2 -27 6 -36 9 -9 3 -39 7 -67 11 -27 3
-61 7 -75 10 -98 18 -208 27 -382 30 -81 1 -149 1 -150 0z"/>
</g>
</svg>
